<svg xmlns="http://www.w3.org/2000/svg" viewBox="0 0 100 100" width="100" height="100">
  <defs>
    <linearGradient id="fsGrad" x1="0%" y1="0%" x2="100%" y2="100%">
      <stop offset="0%" stop-color="#FF5E97" />
      <stop offset="100%" stop-color="#E10066" />
    </linearGradient>
  </defs>
  <!-- Squircle background -->
  <rect width="100" height="100" rx="26" fill="url(#fsGrad)" />
  <!-- Icon: Frontend Browser Window (left/top) + Backend Database Cylinder (right/bottom) -->
  <g fill="none" stroke="white" stroke-width="4.5" stroke-linecap="round" stroke-linejoin="round">
    <!-- Browser Window -->
    <path d="M 45 57 H 22 a 3 3 0 0 1 -3 -3 V 27 a 3 3 0 0 1 3 -3 H 58 a 3 3 0 0 1 3 3 V 40" />
    <!-- Browser Header line -->
    <path d="M 19 32 H 61" />
    <!-- Browser control dots -->
    <circle cx="24" cy="28" r="1.2" fill="white" stroke="none" />
    <circle cx="29" cy="28" r="1.2" fill="white" stroke="none" />
    
    <!-- Database Stack -->
    <!-- Top cylinder -->
    <ellipse cx="57" cy="45" rx="11" ry="3" />
    <path d="M 46 45 v 7.5 a 11 3 0 0 0 22 0 v -7.5" />
    <!-- Middle cylinder -->
    <path d="M 46 52.5 v 7.5 a 11 3 0 0 0 22 0 v -7.5" />
    <!-- Bottom cylinder -->
    <path d="M 46 60 v 7.5 a 11 3 0 0 0 22 0 v -7.5" />
  </g>
</svg>
